#!OML:ASF Y:\EmotionMaleHayes\Project 1\Capture day 1\Session 1\Male1.ASF
:FULLY-SPECIFIED
:DEGREES
1322
root 5.1941 16.3138 10.8841 702.551 -44.0788 374.028
lowerback 9.00671 2.66709 -8.03128
upperback 3.86561 2.74721 -2.29353
thorax -1.27357 1.28219 1.83874
lowerneck -16.3688 -8.96304 -6.38792
upperneck 30.0645 -15.5557 11.3019
head 14.6048 -6.17299 2.7988
rclavicle -1.635e-014 7.95139e-015
rhumerus -33.7754 1.83868 -81.4292
rradius 47.0338
rwrist -6.06915
rhand -15.5158 -34.0811
rfingers 7.12502
rthumb 10.6672 -63.7903
lclavicle -1.635e-014 7.95139e-015
lhumerus -32.9531 3.19052 81.3371
lradius 24.4017
lwrist -6.01128
lhand -16.476 -20.6377
lfingers 7.12502
lthumb 9.74098 9.11704
rfemur 12.2353 9.67596 12.2724
rtibia 57.2331
rfoot 0.378478 -3.39531
rtoes 15.7338
lfemur -10.321 -4.89599 -24.2007
ltibia 25.6989
lfoot -9.02598 -0.215595
ltoes -20.2348
1323
root 5.11411 16.3394 11.0074 701.727 -44.5695 375.057
lowerback 9.06492 2.65871 -8.87438
upperback 4.03292 2.66317 -2.26645
thorax -1.15486 1.22088 2.34344
lowerneck -16.652 -8.95924 -6.668
upperneck 30.0385 -15.4116 11.2181
head 14.6539 -6.13903 2.82744
rclavicle -3.34704e-014 3.26007e-014
rhumerus -33.8528 1.4372 -81.5354
rradius 45.2535
rwrist -5.33916
rhand -15.1848 -34.7931
rfingers 7.12502
rthumb 10.9865 -64.4856
lclavicle -3.34704e-014 3.26007e-014
lhumerus -31.5499 3.56618 82.11
lradius 24.8146
lwrist -5.29165
lhand -17.0741 -20.6055
lfingers 7.12502
lthumb 9.16384 9.17537
rfemur 10.2987 9.17672 11.1631
rtibia 59.6591
rfoot -0.46204 -3.66071
rtoes 15.5716
lfemur -9.38318 -4.57499 -24.9872
ltibia 25.3575
lfoot -9.58262 0.126686
ltoes -20.1553
1324
root 5.02975 16.3714 11.1283 701.128 -45.2366 375.776
lowerback 8.97924 2.6768 -9.38296
upperback 4.20203 2.66008 -2.29088
thorax -0.946618 1.1987 2.60614
lowerneck -16.6846 -8.98094 -6.63607
upperneck 29.8948 -15.3966 11.1345
head 14.5807 -6.14354 2.78666
rclavicle -2.74323e-014 -3.57812e-015
rhumerus -33.9183 0.679163 -81.7202
rradius 43.3932
rwrist -4.56112
rhand -14.4717 -35.1074
rfingers 7.12502
rthumb 11.6742 -64.7621
lclavicle -2.74323e-014 -3.57812e-015
lhumerus -30.4043 2.52725 83.0303
lradius 25.7047
lwrist -3.36372
lhand -17.7004 -20.3184
lfingers 7.12502
lthumb 8.55951 9.48807
rfemur 8.2764 8.74276 10.4415
rtibia 61.9208
rfoot -1.43327 -3.908
rtoes 16.4381
lfemur -8.40584 -4.24387 -25.4569
ltibia 24.8183
lfoot -10.0325 0.683784
ltoes -21.6104
1325
root 4.95177 16.4056 11.2417 700.435 -45.7637 376.787
lowerback 8.87493 2.57542 -10.1636
upperback 4.34698 2.47757 -2.3663
thorax -0.736657 1.08241 2.98463
lowerneck -16.8269 -8.87367 -6.44455
upperneck 29.8216 -15.202 10.93
head 14.513 -6.0618 2.70465
rclavicle -1.06847e-015 -3.29983e-014
rhumerus -33.8521 0.220276 -82.0029
rradius 41.5351
rwrist -3.94339
rhand -14.0138 -35.3477
rfingers 7.12502
rthumb 12.1158 -64.9769
lclavicle -1.06847e-015 -3.29983e-014
lhumerus -29.4155 0.857335 83.9569
lradius 27.0253
lwrist -0.644728
lhand -18.1232 -20.2871
lfingers 7.12502
lthumb 8.15141 9.53563
rfemur 6.04844 8.10518 9.43813
rtibia 63.9746
rfoot -2.18014 -4.14003
rtoes 17.9179
lfemur -7.55208 -3.95728 -26.1946
ltibia 24.2164
lfoot -10.4115 1.13906
ltoes -22.1774
1326
root 4.87953 16.4411 11.3513 699.685 -46.188 377.961
lowerback 8.9667 2.75035 -10.5412
upperback 4.13149 2.63423 -2.82742
thorax -1.02603 1.17546 2.68535
lowerneck -15.9593 -8.91918 -6.14288
upperneck 29.5366 -15.4213 11.0959
head 14.212 -6.16043 2.70848
rclavicle 6.63444e-014 -8.74653e-015
rhumerus -34.8617 -1.53814 -82.2888
rradius 39.943
rwrist -2.51905
rhand -13.7628 -35.5395
rfingers 7.12502
rthumb 12.3578 -65.1543
lclavicle 6.63444e-014 -8.74653e-015
lhumerus -29.6151 -3.23025 84.9298
lradius 29.7514
lwrist 2.76401
lhand -18.2434 -20.1135
lfingers 7.12502
lthumb 8.0354 9.71376
rfemur 3.74348 7.38399 8.28514
rtibia 65.819
rfoot -2.57165 -4.07628
rtoes 19.5805
lfemur -6.8245 -3.67111 -27.0887
ltibia 23.7178
lfoot -10.7563 1.46012
ltoes -21.7567
1327
root 4.80418 16.4811 11.4607 699.293 -46.6317 378.62
lowerback 9.02968 2.57039 -11.0278
upperback 4.18079 2.34585 -2.83378
thorax -0.986472 1.0211 2.9767
lowerneck -16.2578 -8.79007 -6.36296
upperneck 29.6076 -15.2063 11.2036
head 14.3166 -6.06336 2.81887
rclavicle 2.00027e-014 -1.53064e-014
rhumerus -35.0734 -2.23376 -82.3348
rradius 38.323
rwrist -0.705378
rhand -13.3146 -35.4891
rfingers 7.12502
rthumb 12.7899 -65.0773
lclavicle 2.00027e-014 -1.53064e-014
lhumerus -28.189 -2.83086 85.0404
lradius 30.1421
lwrist 2.57082
lhand -18.2905 -21.0486
lfingers 7.12502
lthumb 7.98998 8.78034
rfemur 1.53009 6.51186 7.5901
rtibia 67.3668
rfoot -2.77618 -3.947
rtoes 20.4006
lfemur -6.13054 -3.42288 -27.5941
ltibia 23.2289
lfoot -10.9982 1.83307
ltoes -22.319
1328
root 4.72587 16.527 11.568 699.075 -47.1039 378.985
lowerback 9.01174 2.29324 -11.4312
upperback 4.24181 1.95315 -2.73188
thorax -0.87165 0.811807 3.34997
lowerneck -16.4461 -8.56539 -6.56799
upperneck 29.6936 -14.8507 11.2865
head 14.3811 -5.91413 2.95114
rclavicle -6.75868e-015 3.89618e-014
rhumerus -35.2365 -2.62642 -82.3713
rradius 36.7326
rwrist 0.843472
rhand -12.9022 -35.4308
rfingers 7.12502
rthumb 13.1875 -64.9938
lclavicle -6.75868e-015 3.89618e-014
lhumerus -27.4721 -4.31288 85.5259
lradius 31.6376
lwrist 4.32899
lhand -18.8379 -20.766
lfingers 7.12502
lthumb 7.46161 9.08242
rfemur -0.644421 5.49165 7.22169
rtibia 68.6904
rfoot -3.23736 -3.89412
rtoes 20.9549
lfemur -5.30108 -3.18629 -27.8407
ltibia 22.5382
lfoot -11.1752 2.12328
ltoes -22.1556
1329
root 4.65081 16.5745 11.6744 698.879 -47.6931 379.328
lowerback 8.99434 2.1506 -11.5304
upperback 4.25488 1.75676 -2.76427
thorax -0.82127 0.709094 3.3924
lowerneck -16.7616 -8.34431 -6.11471
upperneck 29.9892 -14.5228 10.7863
head 14.4463 -5.76377 2.73304
rclavicle -8.70925e-014 1.94809e-014
rhumerus -35.5206 -3.17193 -82.4898
rradius 35.1224
rwrist 1.97577
rhand -12.8694 -35.1601
rfingers 7.12502
rthumb 13.219 -64.721
lclavicle -8.70925e-014 1.94809e-014
lhumerus -26.6446 -5.80711 85.6894
lradius 32.7329
lwrist 5.34571
lhand -19.3502 -21.1732
lfingers 7.12502
lthumb 6.96713 8.69218
rfemur -2.8948 4.5717 6.95013
rtibia 69.9007
rfoot -4.26477 -3.64423
rtoes 22.7127
lfemur -4.45695 -2.89702 -28.0153
ltibia 21.8236
lfoot -11.4448 2.33118
ltoes -21.3692
1330
root 4.57179 16.6212 11.773 698.774 -48.2298 379.478
lowerback 9.08707 2.05544 -11.554
upperback 4.31228 1.61745 -2.74285
thorax -0.792736 0.634672 3.44124
lowerneck -17.1077 -8.22292 -5.71863
upperneck 30.2125 -14.3454 10.3748
head 14.5223 -5.67356 2.52712
rclavicle 1.34428e-014 -6.0033e-014
rhumerus -35.8809 -3.81487 -82.486
rradius 33.6469
rwrist 3.35774
rhand -13.0976 -34.6393
rfingers 7.12502
rthumb 12.9991 -64.2143
lclavicle 1.34428e-014 -6.0033e-014
lhumerus -25.4137 -6.70378 85.6642
lradius 33.4254
lwrist 5.7884
lhand -19.5344 -21.4397
lfingers 7.12502
lthumb 6.78927 8.43145
rfemur -5.01261 3.63104 6.93195
rtibia 70.8642
rfoot -3.87371 -2.981
rtoes 20.7906
lfemur -3.59202 -2.59375 -27.9821
ltibia 21.1204
lfoot -11.6151 2.54626
ltoes -21.4836
1331
root 4.48444 16.6689 11.8616 698.651 -48.5439 379.479
lowerback 9.34988 1.80423 -11.9808
upperback 4.52968 1.2297 -2.45098
thorax -0.659463 0.417204 4.02121
lowerneck -17.1274 -8.10132 -6.1637
upperneck 29.6823 -14.0823 10.8175
head 14.3457 -5.56954 2.82168
rclavicle 1.93815e-015 -1.00585e-013
rhumerus -35.9473 -4.0942 -82.2358
rradius 32.2547
rwrist 5.37566
rhand -12.8803 -34.3486
rfingers 7.12502
rthumb 13.2086 -63.9102
lclavicle 1.93815e-015 -1.00585e-013
lhumerus -24.0048 -7.33225 85.8681
lradius 34.5536
lwrist 6.71204
lhand -20.2203 -19.8965
lfingers 7.12502
lthumb 6.1271 9.99491
rfemur -6.82211 2.58883 7.14618
rtibia 71.5143
rfoot -3.88653 -2.26799
rtoes 19.8293
lfemur -2.56289 -2.40663 -27.8417
ltibia 20.3302
lfoot -11.636 2.71129
ltoes -21.7854
1332
root 4.39584 16.7158 11.9546 698.433 -48.9092 379.523
lowerback 9.6407 1.70244 -12.1278
upperback 4.54146 1.03771 -2.36965
thorax -0.778788 0.323769 4.20431
lowerneck -17.8359 -7.98188 -6.00234
upperneck 30.5517 -13.973 10.4787
head 14.8333 -5.4925 2.67075
rclavicle 2.91716e-014 2.34566e-014
rhumerus -36.6506 -4.87304 -81.9386
rradius 31.1142
rwrist 7.10961
rhand -12.1162 -34.2547
rfingers 7.12502
rthumb 13.945 -63.767
lclavicle 2.91716e-014 2.34566e-014
lhumerus -23.3588 -9.42652 86.0159
lradius 36.2858
lwrist 8.16163
lhand -21.3052 -18.1872
lfingers 7.12502
lthumb 5.07963 11.7319
rfemur -8.48254 1.75909 7.40902
rtibia 71.9656
rfoot -4.08109 -1.40747
rtoes 18.6406
lfemur -1.43242 -2.2842 -27.7657
ltibia 19.5355
lfoot -11.7906 2.86136
ltoes -21.2218
1333
root 4.30919 16.7602 12.0608 698.045 -49.2724 379.758
lowerback 9.87608 1.51893 -12.3787
upperback 4.68795 0.745972 -2.25824
thorax -0.705817 0.162199 4.49019
lowerneck -18.45 -7.83013 -5.78644
upperneck 31.0134 -13.7124 10.034
head 15.0875 -5.37443 2.49222
rclavicle 7.4743e-014 -1.90833e-014
rhumerus -37.0396 -5.02191 -81.6579
rradius 30.1263
rwrist 8.19546
rhand -11.4984 -33.9766
rfingers 7.12502
rthumb 14.5403 -63.4471
lclavicle 7.4743e-014 -1.90833e-014
lhumerus -21.9009 -9.94108 85.7628
lradius 36.6372
lwrist 8.53726
lhand -21.3924 -18.8826
lfingers 7.12502
lthumb 4.99549 11.0386
rfemur -9.93201 0.89918 7.44862
rtibia 71.9956
rfoot -4.5546 -0.377595
rtoes 16.4414
lfemur -0.205044 -2.11239 -27.944
ltibia 18.664
lfoot -12.009 3.03061
ltoes -20.5787
1334
root 4.22239 16.8025 12.1692 697.315 -49.3836 380.38
lowerback 10.2203 1.31147 -12.84
upperback 4.76362 0.373712 -2.28945
thorax -0.747494 -0.0330791 4.75059
lowerneck -18.5468 -7.58413 -5.53841
upperneck 31.1829 -13.3262 9.68695
head 15.0866 -5.22152 2.3861
rclavicle -3.73715e-014 1.78906e-014
rhumerus -37.7154 -5.22831 -81.4242
rradius 29.2983
rwrist 9.44211
rhand -11.1313 -33.525
rfingers 7.12502
rthumb 14.894 -62.9696
lclavicle -3.73715e-014 1.78906e-014
lhumerus -20.7283 -10.2902 85.2961
lradius 36.86
lwrist 8.83855
lhand -20.8452 -20.7688
lfingers 7.12502
lthumb 5.52381 9.13921
rfemur -11.2007 -0.0500684 6.96259
rtibia 71.7133
rfoot -4.56745 0.682568
rtoes 16.6902
lfemur 1.12677 -1.91921 -28.5248
ltibia 17.6769
lfoot -12.1605 3.12425
ltoes -20.2922
1335
root 4.1285 16.8405 12.2692 696.601 -49.5721 380.962
lowerback 10.5453 1.18445 -13.3162
upperback 4.78856 0.103004 -2.30713
thorax -0.845029 -0.172116 5.02423
lowerneck -18.3462 -7.44955 -5.38991
upperneck 31.2306 -13.1491 9.54797
head 15.017 -5.15913 2.34685
rclavicle -4.47266e-015 2.90226e-014
rhumerus -38.6077 -5.20748 -81.3283
rradius 28.6385
rwrist 10.266
rhand -10.9182 -33.3012
rfingers 7.12502
rthumb 15.0993 -62.7305
lclavicle -4.47266e-015 2.90226e-014
lhumerus -19.9885 -11.2669 84.8395
lradius 37.7006
lwrist 9.17622
lhand -20.5783 -22.1297
lfingers 7.12502
lthumb 5.78152 7.77143
rfemur -12.7902 -1.20556 6.60553
rtibia 71.696
rfoot -5.24052 1.85928
rtoes 15.8262
lfemur 2.51208 -1.68097 -28.9258
ltibia 16.5715
lfoot -12.2676 3.35321
ltoes -21.1869
1336
root 4.03299 16.873 12.3674 696.321 -50.0337 381.011
lowerback 10.7368 1.11645 -13.3714
upperback 4.87545 -0.0183584 -2.23009
thorax -0.83356 -0.240164 5.15029
lowerneck -17.9548 -7.43014 -5.483
upperneck 30.9001 -13.1487 9.80068
head 14.81 -5.16602 2.47307
rclavicle -8.57259e-014 -1.82882e-014
rhumerus -39.453 -5.20944 -81.2488
rradius 28.128
rwrist 10.8575
rhand -11.0697 -33.2167
rfingers 7.12502
rthumb 14.9533 -62.6568
lclavicle -8.57259e-014 -1.82882e-014
lhumerus -18.7677 -12.1829 84.3687
lradius 38.1145
lwrist 8.97154
lhand -20.6474 -22.5619
lfingers 7.12502
lthumb 5.71483 7.34103
rfemur -13.7165 -1.53032 7.06934
rtibia 70.6601
rfoot -5.83416 2.26851
rtoes 16.4977
lfemur 3.85888 -1.45042 -28.7937
ltibia 15.4124
lfoot -12.2626 3.72047
ltoes -22.7832
